<?xml version="1.0" encoding="UTF-8" standalone="no"?>
<svg
   xmlns:dc="http://purl.org/dc/elements/1.1/"
   xmlns:cc="http://creativecommons.org/ns#"
   xmlns:rdf="http://www.w3.org/1999/02/22-rdf-syntax-ns#"
   xmlns:svg="http://www.w3.org/2000/svg"
   xmlns="http://www.w3.org/2000/svg"
   xmlns:sodipodi="http://sodipodi.sourceforge.net/DTD/sodipodi-0.dtd"
   xmlns:inkscape="http://www.inkscape.org/namespaces/inkscape"
   width="32"
   height="32"
   viewBox="0 0 32 32"
   fill="#000000"
   version="1.1"
   id="svg6"
   sodipodi:docname="close.svg"
   inkscape:version="1.0.1 (3bc2e813f5, 2020-09-07)">
  <metadata
     id="metadata12">
    <rdf:RDF>
      <cc:Work
         rdf:about="">
        <dc:format>image/svg+xml</dc:format>
        <dc:type
           rdf:resource="http://purl.org/dc/dcmitype/StillImage" />
      </cc:Work>
    </rdf:RDF>
  </metadata>
  <defs
     id="defs10" />
  <sodipodi:namedview
     pagecolor="#ffffff"
     bordercolor="#666666"
     borderopacity="1"
     objecttolerance="10"
     gridtolerance="10"
     guidetolerance="10"
     inkscape:pageopacity="0"
     inkscape:pageshadow="2"
     inkscape:window-width="1920"
     inkscape:window-height="1027"
     id="namedview8"
     showgrid="false"
     inkscape:zoom="13.4375"
     inkscape:cx="37.449176"
     inkscape:cy="5.7785643"
     inkscape:window-x="-8"
     inkscape:window-y="-8"
     inkscape:window-maximized="1"
     inkscape:current-layer="svg6" />
  <g
     id="g4">
    <path
       id="path2"
       d="m 11.400391,9.7578125 c -0.256,0 -0.512032,0.097969 -0.707032,0.2929685 -0.39,0.39 -0.39,1.024063 0,1.414063 l 4.933594,5.498047 -5.574219,5.572265 c -0.3899992,0.39 -0.3899992,1.024063 0,1.414063 0.39,0.39 1.024063,0.39 1.414063,0 l 5.498047,-5.498047 4.93164,5.498047 c 0.39,0.39 1.024063,0.39 1.414063,0 0.39,-0.39 0.39,-1.024063 0,-1.414063 l -4.933594,-5.498047 5.572266,-5.572265 c 0.39,-0.39 0.39,-1.024063 0,-1.414063 -0.39,-0.3899996 -1.024063,-0.3899996 -1.414063,0 l -5.498047,5.498047 -4.929687,-5.498047 c -0.195,-0.1949995 -0.451031,-0.2929685 -0.707031,-0.2929685 z m 20.115234,9.5214845 c 1.15e-4,0.0052 -1.3e-4,0.01042 0,0.01563 0.0018,0.0065 0.004,0.01298 0.0059,0.01953 -0.0024,-0.012 -0.0061,-0.04738 -0.0059,-0.03516 z" />
  </g>
</svg>
